<svg width="18" height="20" viewBox="0 0 18 20" fill="none" xmlns="http://www.w3.org/2000/svg">
<path id="Vector" d="M17.3077 4.375C14.4164 5.075 12.1349 5.625 9 5.625C5.86514 5.625 3.58356 5.075 0.692308 4.375L0 6.36719C2.07692 7.16914 4.18457 7.74063 6.36923 8.44531L4.15385 19.375L6.59423 20L8.56731 13.125H9.43269L11.4058 20L13.8462 19.375L11.6308 8.44531C13.8141 7.80977 15.9231 7.16914 18 6.40625L17.3077 4.375ZM9 4.375C8.52076 4.375 8.05228 4.24671 7.65381 4.00634C7.25534 3.76598 6.94477 3.42433 6.76137 3.02462C6.57797 2.62491 6.52999 2.18507 6.62348 1.76074C6.71698 1.33641 6.94775 0.946632 7.28663 0.640705C7.6255 0.334777 8.05725 0.126438 8.52728 0.0420332C8.99731 -0.042372 9.48451 0.000947826 9.92727 0.166515C10.37 0.332081 10.7485 0.612459 11.0147 0.972191C11.281 1.33192 11.4231 1.75485 11.4231 2.1875C11.4224 2.76747 11.1669 3.32351 10.7126 3.73361C10.2583 4.14371 9.64243 4.37438 9 4.375Z" fill="white"/>
</svg>
