<svg width="26" height="27" viewBox="0 0 26 27" fill="none" xmlns="http://www.w3.org/2000/svg">
<path d="M13 1C6.37288 1 1 6.55377 1 13.404C1 20.2542 6.37288 25.808 13 25.808C19.6271 25.808 25 20.2542 25 13.404C25 6.55377 19.6271 1 13 1Z" stroke="white" stroke-miterlimit="10"/>
<path d="M13.0001 1C9.64992 1 6.49992 6.55377 6.49992 13.404C6.49992 20.2542 9.64992 25.808 13.0001 25.808C16.3503 25.808 19.5003 20.2542 19.5003 13.404C19.5003 6.55377 16.3503 1 13.0001 1Z" stroke="white" stroke-miterlimit="10"/>
<path d="M4.99976 5.13455C7.20591 6.75363 9.98322 7.71911 12.9999 7.71911C16.0167 7.71911 18.794 6.75363 21.0001 5.13455M21.0001 21.6736C18.794 20.0545 16.0167 19.089 12.9999 19.089C9.98322 19.089 7.20591 20.0545 4.99976 21.6736" stroke="white" stroke-linecap="round" stroke-linejoin="round"/>
<path d="M13 1V25.808M25 13.404H1" stroke="white" stroke-miterlimit="10"/>
</svg>
