<svg width="20" height="10" viewBox="0 0 20 10" fill="none" xmlns="http://www.w3.org/2000/svg">
<path id="Vector" d="M7.60548 1.00002H5.15385C4.05218 1.00002 2.99563 1.42144 2.21663 2.17159C1.43764 2.92173 1 3.93915 1 5.00002C1 6.06088 1.43764 7.0783 2.21663 7.82844C2.99563 8.57859 4.05218 9.00002 5.15385 9.00002H7.55139M12.4486 9.00002H14.8462C15.9478 9.00002 17.0044 8.57859 17.7834 7.82844C18.5624 7.0783 19 6.06088 19 5.00002C19 3.93915 18.5624 2.92173 17.7834 2.17159C17.0044 1.42144 15.9478 1.00002 14.8462 1.00002H12.3945M6.23861 5.00002H13.8479" stroke="white" stroke-width="2" stroke-linecap="square" stroke-linejoin="round"/>
</svg>
