<svg width="24" height="25" viewBox="0 0 24 25" fill="none" xmlns="http://www.w3.org/2000/svg">
<path d="M16.9998 2.06715C18.3248 2.07124 19.5943 2.61711 20.5312 3.58554C21.4681 4.55398 21.9962 5.86628 22.0002 7.23585V17.5721C21.9962 18.9417 21.4681 20.254 20.5312 21.2224C19.5943 22.1909 18.3248 22.7367 16.9998 22.7408H7.00018C5.67522 22.7367 4.40566 22.1909 3.46876 21.2224C2.53187 20.254 2.00378 18.9417 1.99982 17.5721V7.23585C2.00378 5.86628 2.53187 4.55398 3.46876 3.58554C4.40566 2.61711 5.67522 2.07124 7.00018 2.06715H16.9998ZM16.9998 0H7.00018C3.15 0 0 3.25605 0 7.23585V17.5721C0 21.5519 3.15 24.808 7.00018 24.808H16.9998C20.85 24.808 24 21.5519 24 17.5721V7.23585C24 3.25605 20.85 0 16.9998 0Z" fill="white"/>
<path d="M18.4998 7.23601C18.2032 7.23601 17.9131 7.14507 17.6665 6.9747C17.4198 6.80433 17.2275 6.56218 17.114 6.27886C17.0005 5.99554 16.9708 5.68379 17.0286 5.38302C17.0865 5.08225 17.2294 4.80598 17.4392 4.58914C17.6489 4.3723 17.9162 4.22463 18.2072 4.1648C18.4982 4.10498 18.7998 4.13568 19.0738 4.25304C19.3479 4.37039 19.5822 4.56912 19.747 4.8241C19.9118 5.07908 19.9998 5.37885 19.9998 5.68551C20.0002 5.88925 19.9617 6.09106 19.8865 6.27938C19.8113 6.46769 19.7008 6.63879 19.5614 6.78285C19.4221 6.92692 19.2565 7.04111 19.0743 7.11888C18.8922 7.19664 18.6969 7.23645 18.4998 7.23601ZM12 8.2693C12.7912 8.2693 13.5646 8.51181 14.2224 8.96615C14.8802 9.4205 15.3929 10.0663 15.6957 10.8218C15.9984 11.5774 16.0777 12.4087 15.9233 13.2108C15.769 14.0129 15.388 14.7497 14.8286 15.3279C14.2691 15.9062 13.5564 16.3 12.7804 16.4595C12.0044 16.6191 11.2001 16.5372 10.4692 16.2243C9.73826 15.9113 9.11352 15.3813 8.67398 14.7014C8.23443 14.0214 7.99982 13.2219 7.99982 12.4042C8.00096 11.3079 8.42277 10.2568 9.1727 9.48167C9.92264 8.70649 10.9394 8.27048 12 8.2693ZM12 6.20216C10.8133 6.20216 9.65328 6.5659 8.66658 7.24738C7.67989 7.92887 6.91085 8.89748 6.45673 10.0308C6.0026 11.164 5.88378 12.411 6.11529 13.6141C6.3468 14.8172 6.91825 15.9223 7.75736 16.7896C8.59648 17.657 9.66557 18.2477 10.8295 18.487C11.9933 18.7263 13.1997 18.6035 14.2961 18.134C15.3925 17.6646 16.3295 16.8697 16.9888 15.8498C17.6481 14.8299 18 13.6308 18 12.4042C18 10.7593 17.3679 9.18178 16.2426 8.01868C15.1174 6.85558 13.5913 6.20216 12 6.20216Z" fill="white"/>
</svg>
