<svg width="21" height="26" viewBox="0 0 21 26" fill="none" xmlns="http://www.w3.org/2000/svg">
<path id="Vector" d="M17.1818 9.53333H16.2273V5.2C16.2273 3.82087 15.6239 2.49823 14.5498 1.52304C13.4757 0.547856 12.019 0 10.5 0C8.98103 0 7.52428 0.547856 6.45021 1.52304C5.37613 2.49823 4.77273 3.82087 4.77273 5.2V9.53333H3.81818C2.80588 9.53434 1.83535 9.8999 1.11954 10.5498C0.403732 11.1997 0.0011054 12.0809 0 13V22.5333C0.0011054 23.4524 0.403732 24.3336 1.11954 24.9835C1.83535 25.6334 2.80588 25.999 3.81818 26H17.1818C18.1941 25.999 19.1647 25.6334 19.8805 24.9835C20.5963 24.3336 20.9989 23.4524 21 22.5333V13C20.9989 12.0809 20.5963 11.1997 19.8805 10.5498C19.1647 9.8999 18.1941 9.53434 17.1818 9.53333ZM14.3182 9.53333H6.68182V5.2C6.68182 4.28058 7.08409 3.39882 7.80014 2.7487C8.51619 2.09857 9.48736 1.73333 10.5 1.73333C11.5126 1.73333 12.4838 2.09857 13.1999 2.7487C13.9159 3.39882 14.3182 4.28058 14.3182 5.2V9.53333Z" fill="white"/>
</svg>
