<svg width="24" height="25" viewBox="0 0 24 25" fill="none" xmlns="http://www.w3.org/2000/svg">
<path id="Vector" d="M16.4214 1.81807C15.2988 0.645644 13.7307 0 12 0C10.26 0 8.68682 0.641737 7.56935 1.80691C6.43977 2.98492 5.8894 4.58591 6.01863 6.3147C6.27477 9.72539 8.95797 12.4999 12 12.4999C15.042 12.4999 17.7206 9.72595 17.9808 6.31581C18.1118 4.60265 17.5579 3.005 16.4214 1.81807ZM22.1536 24.9999H1.84643C1.58063 25.0032 1.3174 24.9492 1.07589 24.8417C0.834389 24.7343 0.62068 24.5761 0.450318 24.3788C0.0753279 23.9452 -0.0758218 23.3531 0.0360982 22.7543C0.523008 20.1416 2.04258 17.9469 4.43098 16.4062C6.55284 15.0384 9.24065 14.2856 12 14.2856C14.7593 14.2856 17.4472 15.039 19.569 16.4062C21.9574 17.9463 23.477 20.1411 23.9639 22.7538C24.0758 23.3525 23.9247 23.9446 23.5497 24.3782C23.3794 24.5757 23.1657 24.734 22.9242 24.8415C22.6827 24.949 22.4194 25.0031 22.1536 24.9999Z" fill="white"/>
</svg>
